<svg xmlns="http://www.w3.org/2000/svg" viewBox="0 0 512.001 512.001"><path d="M511.919 226.457a15.086 15.086 0 0 0-5.89-10.444l-40.558-30.721 14.757-48.69a15.075 15.075 0 0 0-11.002-19.056l-49.547-11.569-6.325-50.483a15.083 15.083 0 0 0-6.098-10.324 15.065 15.065 0 0 0-11.703-2.61l-49.968 9.585L319.27 8.598a15.08 15.08 0 0 0-21.523-4.575L256 33.102 214.251 4.024a15.09 15.09 0 0 0-11.753-2.375 15.07 15.07 0 0 0-9.769 6.951l-26.312 43.546-49.967-9.584a15.08 15.08 0 0 0-17.801 12.934l-6.325 50.483-49.548 11.569a15.08 15.08 0 0 0-11.002 19.055l14.754 48.691-40.554 30.72a15.08 15.08 0 0 0-2.299 21.883l33.281 38.481-24.554 44.56a15.08 15.08 0 0 0 6.8 20.926l46.056 21.616-4.309 50.696a15.078 15.078 0 0 0 14.723 16.353l50.87 1.014 16.681 48.064a15.075 15.075 0 0 0 20.101 8.951l46.886-19.763L245 505.919a15.08 15.08 0 0 0 22.004 0l34.79-37.124 46.882 19.763a15.095 15.095 0 0 0 11.99-.12 15.07 15.07 0 0 0 8.112-8.83l16.684-48.065 50.867-1.014a15.077 15.077 0 0 0 14.724-16.353l-4.309-50.696 46.058-21.616a15.084 15.084 0 0 0 7.936-8.99 15.08 15.08 0 0 0-1.135-11.937l-24.557-44.559 33.283-38.481a15.098 15.098 0 0 0 3.59-11.44z" fill="#ff9f00"/><path d="M511.919 226.457a15.086 15.086 0 0 0-5.89-10.444l-40.558-30.721 14.757-48.69a15.075 15.075 0 0 0-11.002-19.056l-49.547-11.569-6.325-50.483a15.083 15.083 0 0 0-6.098-10.324 15.065 15.065 0 0 0-11.703-2.61l-49.968 9.585L319.27 8.598a15.08 15.08 0 0 0-21.523-4.575L256 33.102v477.579a15.08 15.08 0 0 0 11.002-4.768l34.79-37.124 46.882 19.763a15.095 15.095 0 0 0 11.99-.12 15.07 15.07 0 0 0 8.112-8.83l16.684-48.065 50.867-1.014a15.077 15.077 0 0 0 14.724-16.353l-4.309-50.696 46.058-21.616a15.084 15.084 0 0 0 7.936-8.99 15.08 15.08 0 0 0-1.135-11.937l-24.557-44.559 33.283-38.481a15.07 15.07 0 0 0 3.592-11.434z" fill="#f77e00"/><path d="M256.001 111.723c-79.556 0-144.278 64.723-144.278 144.278s64.723 144.278 144.278 144.278S400.278 335.555 400.278 256s-64.723-144.277-144.277-144.277z" fill="#ffda2d"/><g fill="#ff9f00"><path d="M256.001 111.723v288.556c79.555 0 144.278-64.723 144.278-144.278s-64.724-144.278-144.278-144.278z"/><path d="M239.85 303.378a15.031 15.031 0 0 1-10.661-4.416l-32.301-32.3c-5.887-5.887-5.887-15.434 0-21.323 5.887-5.887 15.434-5.889 21.323 0l21.639 21.638 53.938-53.937c5.887-5.887 15.434-5.889 21.323 0 5.888 5.887 5.888 15.435 0 21.323l-64.6 64.599a15.031 15.031 0 0 1-10.661 4.416z"/></g><path d="M315.112 213.04c-5.888-5.889-15.435-5.887-21.323 0L256 250.829v42.645l59.112-59.111c5.888-5.889 5.888-15.436 0-21.323z" fill="#f77e00"/></svg>