<svg xmlns="http://www.w3.org/2000/svg" viewBox="0 0 512 512"><path d="M459.026 243.438L256 86.933 52.974 243.438c-10.475 8.075-25.377 6.837-34.376-2.856a25.593 25.593 0 0 1 2.984-37.567L256 17.067l234.418 185.949a25.587 25.587 0 0 1 2.984 37.567c-8.999 9.692-23.901 10.93-34.376 2.855z" fill="#a4c2f7"/><path fill="#fff" d="M256 86.938L59.733 238.225v256.708h204.8z"/><path fill="#a4c2f7" d="M256 86.938v407.995h196.267V238.225z"/><path fill="#e3e7f2" d="M256 86.938L85.333 238.225v256.708h341.334V238.225z"/><path d="M128 230.4h102.4v68.267H128zm0 119.467h102.4V435.2H128zM281.6 230.4H384v68.267H281.6z" fill="#a4c2f7"/><path fill="#7facfa" d="M281.6 349.867H384v145.067H281.6z"/><path fill="#a4c2f7" d="M281.6 349.867h76.8v145.067h-76.8z"/><g fill="#428dff"><path d="M230.4 307.2H128a8.53 8.53 0 0 1-8.534-8.534V230.4a8.53 8.53 0 0 1 8.534-8.534h102.4a8.53 8.53 0 0 1 8.534 8.534v68.267a8.53 8.53 0 0 1-8.534 8.533zm-93.867-17.067h85.333v-51.2h-85.333v51.2zm93.867 153.6H128a8.53 8.53 0 0 1-8.534-8.534v-85.333a8.53 8.53 0 0 1 8.534-8.534h102.4a8.53 8.53 0 0 1 8.534 8.534V435.2a8.53 8.53 0 0 1-8.534 8.533zm-93.867-17.066h85.333V358.4h-85.333v68.267zM384 307.2H281.6a8.53 8.53 0 0 1-8.534-8.534V230.4a8.53 8.53 0 0 1 8.534-8.534H384a8.53 8.53 0 0 1 8.534 8.534v68.267A8.53 8.53 0 0 1 384 307.2zm-93.867-17.067h85.333v-51.2h-85.333v51.2z"/><path d="M474.675 257.35a34.07 34.07 0 0 1-20.858-7.154L256 97.708 58.183 250.196c-14.888 11.478-36.255 8.753-47.785-6.094-11.53-14.847-8.88-36.224 5.927-47.806L250.7 10.383a8.516 8.516 0 0 1 10.6 0l234.417 185.95a34.174 34.174 0 0 1-21.042 61.017zM256 78.4a8.519 8.519 0 0 1 5.208 1.775l203.025 156.504c7.441 5.744 18.127 4.384 23.893-3.04 5.766-7.424 4.439-18.114-2.968-23.902L256 27.958 26.883 209.7c-7.45 5.767-8.815 16.481-3.048 23.931 5.767 7.45 16.481 8.815 23.931 3.048L250.792 80.175A8.519 8.519 0 0 1 256 78.4z"/><path d="M452.267 503.467H59.733a8.53 8.53 0 0 1-8.534-8.534V358.4a8.533 8.533 0 0 1 17.066 0v128h375.467V242.421L256 97.708 68.267 242.421v30.646a8.533 8.533 0 0 1-17.066 0v-34.133a9.967 9.967 0 0 1 3.325-7.467L250.792 80.175a8.528 8.528 0 0 1 10.417 0l196.267 151.292a8.526 8.526 0 0 1 3.325 6.758v256.708a8.53 8.53 0 0 1-8.534 8.534z"/><path d="M384 503.467H281.6a8.53 8.53 0 0 1-8.534-8.534V349.867a8.53 8.53 0 0 1 8.534-8.534H384a8.53 8.53 0 0 1 8.534 8.534v145.067a8.53 8.53 0 0 1-8.534 8.533zM290.133 486.4h85.333v-128h-85.333v128zm-281.6 17.067a8.53 8.53 0 0 1-8.534-8.534v-76.8a8.533 8.533 0 0 1 17.066 0v76.8a8.53 8.53 0 0 1-8.532 8.534zm25.6 0a8.53 8.53 0 0 1-8.534-8.534v-76.8a8.533 8.533 0 0 1 17.066 0v76.8a8.53 8.53 0 0 1-8.532 8.534zm443.734 0a8.53 8.53 0 0 1-8.534-8.534v-76.8a8.533 8.533 0 0 1 17.066 0v76.8a8.53 8.53 0 0 1-8.532 8.534zm25.6 0a8.53 8.53 0 0 1-8.534-8.534v-76.8a8.533 8.533 0 0 1 17.066 0v76.8a8.53 8.53 0 0 1-8.532 8.534z"/><path d="M59.733 443.733h-51.2a8.533 8.533 0 0 1 0-17.066h51.2c4.713 0 8.533 3.82 8.533 8.533s-3.82 8.533-8.533 8.533zm0 42.667h-51.2a8.533 8.533 0 0 1 0-17.066h51.2a8.533 8.533 0 0 1 0 17.066zm443.734-42.667h-51.2a8.533 8.533 0 0 1 0-17.066h51.2c4.713 0 8.533 3.82 8.533 8.533s-3.82 8.533-8.533 8.533zm0 42.667h-51.2c-4.713 0-8.533-3.82-8.533-8.533s3.82-8.533 8.533-8.533h51.2a8.533 8.533 0 0 1 0 17.066zM179.2 443.733a8.53 8.53 0 0 1-8.534-8.534v-85.333a8.533 8.533 0 0 1 17.066 0V435.2a8.53 8.53 0 0 1-8.532 8.533z"/><path d="M230.4 401.067H128c-4.713 0-8.533-3.82-8.533-8.533S123.287 384 128 384h102.4c4.713 0 8.533 3.82 8.533 8.533s-3.82 8.534-8.533 8.534zm0-136.534H128a8.533 8.533 0 0 1 0-17.066h102.4a8.533 8.533 0 0 1 0 17.066zM384 281.6H281.6c-4.713 0-8.533-3.82-8.533-8.533s3.82-8.533 8.533-8.533H384c4.713 0 8.533 3.82 8.533 8.533s-3.82 8.533-8.533 8.533zM59.733 332.8a8.53 8.53 0 0 1-8.534-8.534V307.2a8.533 8.533 0 0 1 17.066 0v17.067a8.53 8.53 0 0 1-8.532 8.533z"/></g></svg>